<?xml version="1.0" encoding="UTF-8"?>
<!-- Generator: Adobe Illustrator 16.0.0, SVG Export Plug-In . SVG Version: 6.00 Build 0)  -->
<!DOCTYPE svg PUBLIC "-//W3C//DTD SVG 1.1//EN" "http://www.w3.org/Graphics/SVG/1.1/DTD/svg11.dtd">
<svg version="1.1" id="Layer_1" xmlns="http://www.w3.org/2000/svg" xmlns:xlink="http://www.w3.org/1999/xlink" x="0px" y="0px" width="64px" height="64px" viewBox="0 0 64 64" enable-background="new 0 0 64 64" xml:space="preserve">
<g>
	<g id="XMLID_1_">
		<path fill="#3FA9F5" d="M29.916,42.717v4.031c-8.251-1.02-14.621-8.041-14.621-16.561c0-1.289,0.17-2.52,0.44-3.729l10,10v2.09    C25.735,40.838,27.615,42.717,29.916,42.717z"/>
		<path fill="#3FA9F5" d="M44.326,41.447c-0.551-1.691-2.09-2.9-3.971-2.9h-2.09v-6.269c0-1.15-0.939-2.091-2.09-2.091h-12.53v-4.17    h4.181c1.149,0,2.09-0.939,2.09-2.09v-4.18h4.17c2.299,0,4.18-1.88,4.18-4.17v-0.86c6.119,2.49,10.439,8.48,10.439,15.47    C48.705,34.537,47.035,38.479,44.326,41.447z"/>
		<path fill="#7AC943" d="M25.735,36.457l-10-10c-0.271,1.21-0.44,2.44-0.44,3.729c0,8.52,6.37,15.542,14.621,16.561v-4.031    c-2.301,0-4.181-1.879-4.181-4.17V36.457z M23.646,30.187h12.53c1.15,0,2.09,0.94,2.09,2.091v6.269h2.09    c1.881,0,3.42,1.209,3.971,2.9c2.709-2.969,4.379-6.91,4.379-11.26c0-6.989-4.32-12.979-10.439-15.47v0.86    c0,2.29-1.881,4.17-4.18,4.17h-4.17v4.18c0,1.15-0.94,2.09-2.09,2.09h-4.181V30.187z M31.996,9.307    c11.529,0,20.889,9.36,20.889,20.88c0,11.53-9.359,20.891-20.889,20.891c-11.521,0-20.881-9.361-20.881-20.891    C11.115,18.667,20.476,9.307,31.996,9.307z"/>
	</g>
	<path id="Cloud" fill="#EEEEEE" d="M52.547,39.313c-1.049-5.328-5.727-9.329-11.35-9.329c-4.465,0-8.34,2.533-10.271,6.239   c-4.649,0.494-8.263,4.434-8.263,9.205c0,5.113,4.154,9.266,9.266,9.266h20.078c4.262,0,7.721-3.459,7.721-7.721   C59.729,42.895,56.563,39.59,52.547,39.313z"/>
</g>
</svg>